<?xml version="1.0" standalone="no"?>
<!DOCTYPE svg PUBLIC "-//W3C//DTD SVG 20010904//EN"
 "http://www.w3.org/TR/2001/REC-SVG-20010904/DTD/svg10.dtd">
<svg version="1.0" xmlns="http://www.w3.org/2000/svg"
 width="2000.000000pt" height="500.000000pt" viewBox="0 0 2000.000000 500.000000"
 preserveAspectRatio="xMidYMid meet">

<g transform="translate(0.000000,500.000000) scale(0.100000,-0.100000)"
fill="#000000" stroke="none">
<path d="M3885 3388 c-3 -7 -4 -409 -3 -893 l3 -880 178 -3 177 -2 0 354 0
355 758 3 c752 3 757 3 823 25 396 135 502 630 195 911 -64 58 -173 114 -254
131 -81 17 -1871 15 -1877 -1z m1840 -367 c22 -10 50 -29 62 -42 72 -79 50
-214 -42 -266 l-40 -23 -732 0 -733 0 0 168 c0 93 3 172 7 175 3 4 328 7 722
7 675 0 718 -2 756 -19z"/>
<path d="M6375 3388 c-3 -7 -4 -409 -3 -893 l3 -880 1403 -3 1402 -2 0 180 0
180 -1222 2 -1223 3 -3 172 -2 173 1222 2 1223 3 0 180 0 180 -1223 3 -1222 2
2 173 3 172 1223 3 1222 2 0 180 0 180 -1400 0 c-1111 0 -1402 -3 -1405 -12z"/>
<path d="M9540 3220 l0 -180 705 0 705 0 -2 178 -3 177 -702 3 -703 2 0 -180z"/>
<path d="M11305 3388 c-3 -7 -4 -409 -3 -893 l3 -880 178 -3 177 -2 0 355 0
355 428 -1 427 0 304 -360 305 -359 218 0 c204 0 218 1 218 18 0 10 -130 171
-289 358 l-288 339 95 7 c120 9 211 36 287 86 110 72 189 174 226 292 29 90
29 231 0 321 -56 177 -226 330 -409 368 -81 17 -1871 15 -1877 -1z m1840 -367
c71 -33 105 -86 105 -163 0 -57 -40 -123 -90 -148 -38 -19 -59 -20 -770 -20
l-730 0 0 168 c0 93 3 172 7 175 3 4 328 7 722 7 675 0 718 -2 756 -19z"/>
<path d="M14191 3384 c-402 -108 -533 -623 -231 -908 38 -36 92 -77 118 -90
107 -54 104 -54 857 -61 765 -7 726 -4 783 -69 79 -90 33 -239 -85 -274 -30
-9 -251 -12 -877 -12 l-836 0 2 -177 3 -178 880 0 880 0 71 26 c142 52 246
144 310 276 151 311 -33 687 -371 758 -58 12 -188 15 -738 15 -596 0 -673 2
-703 16 -75 36 -113 118 -93 198 13 54 68 112 118 126 23 6 348 10 874 10
l837 0 0 180 0 180 -872 -1 c-729 0 -882 -3 -927 -15z"/>
<path d="M9544 2677 c-2 -7 -3 -89 -2 -182 l3 -170 700 0 700 0 0 180 0 180
-698 3 c-563 2 -699 0 -703 -11z"/>
<path d="M9542 1793 l3 -178 705 0 705 0 0 175 0 175 -708 3 -707 2 2 -177z"/>
</g>
</svg>
